<svg width="16" height="12" viewBox="0 0 16 12" fill="none" xmlns="http://www.w3.org/2000/svg">
<path fill-rule="evenodd" clip-rule="evenodd" d="M7.99941 0.273839C8.29941 -0.0629348 8.81617 -0.093262 9.1537 0.206083L14.9982 5.39021C15.1729 5.54503 15.2727 5.76695 15.2727 5.99999C15.2727 6.23301 15.1729 6.4549 14.9982 6.60981L9.1537 11.7939C8.81617 12.0933 8.29941 12.0629 7.99941 11.7262C7.69941 11.3894 7.72974 10.8737 8.06727 10.5744L12.3047 6.81588H0.817614C0.366054 6.81588 0 6.45054 0 5.99999C0 5.54941 0.366054 5.18414 0.817614 5.18414H12.3047L8.06727 1.42565C7.72974 1.1263 7.69941 0.610614 7.99941 0.273839Z" fill="white"/>
</svg>
